<?xml version="1.0" encoding="UTF-8"?>
<svg id="Layer_1" data-name="Layer 1" xmlns="http://www.w3.org/2000/svg" viewBox="0 0 290 96">
  <defs>
    <style>
      .cls-1 {
        fill: #010101;
      }

      .cls-1, .cls-2, .cls-3 {
        stroke-width: 0px;
      }

      .cls-2 {
        fill: #e6e6e5;
      }

      .cls-3 {
        fill: #818181;
      }
    </style>
  </defs>
  <rect class="cls-2" width="290" height="96"/>
  <rect class="cls-1" x="22" y="43.5" width="76" height="9"/>
  <rect class="cls-1" x="225" y="43.5" width="43" height="9"/>
  <rect class="cls-3" x="39.01" y="40" width="160" height="2"/>
  <polygon class="cls-1" points="45.33 25.21 39.01 31.61 45.41 37.94 47.4 35.93 44.39 32.96 53.88 32.9 53.87 32.15 53.87 30.9 53.86 30.15 44.37 30.21 47.34 27.2 45.33 25.21"/>
  <polygon class="cls-1" points="192.68 37.94 199.01 31.54 192.6 25.21 190.62 27.22 193.62 30.19 184.13 30.25 184.14 31 184.15 32.25 184.15 33 193.64 32.94 190.67 35.95 192.68 37.94"/>
</svg>